<svg width="26" height="26" viewBox="0 0 26 26" fill="none" xmlns="http://www.w3.org/2000/svg">
<path d="M3 0V23H26" stroke="#272843"/>
<path d="M23 26L23 3L1.03375e-07 3" stroke="#272843"/>
<path d="M8 17.6641V10.6641L11.5 14.1641L15 10.6641V17.6641" stroke="#272843"/>
<path d="M18.4781 7.44C18.4781 9.056 16.7341 9.328 16.7341 10.976V11.664H19.2781V10.864H17.6141C17.6061 10.824 17.6061 10.784 17.6061 10.744C17.6061 9.824 19.3581 9.168 19.3581 7.408C19.3581 6.512 18.9101 6 18.0461 6C17.1821 6 16.7341 6.512 16.7341 7.408V7.952H17.5661V7.352C17.5661 6.952 17.7421 6.8 18.0221 6.8C18.3021 6.8 18.4781 6.936 18.4781 7.44Z" fill="#272843"/>
</svg>
