<svg width="46" height="39" viewBox="0 0 46 39" fill="none" xmlns="http://www.w3.org/2000/svg">
<rect x="1" y="18.4667" width="44" height="14.6667" stroke="white" stroke-width="2"/>
<path d="M5.3999 9.03815C5.3999 9.03815 11.7999 5.26672 22.9999 5.26672C34.1999 5.26672 40.5999 9.03815 40.5999 9.03815V18.4667H5.3999V9.03815Z" stroke="white" stroke-width="2"/>
<path d="M24.4666 13.2286C24.4666 13.2286 26.8666 11.1334 31.0666 11.1334C35.2666 11.1334 37.6666 13.2286 37.6666 13.2286V18.4667H24.4666V13.2286Z" stroke="white" stroke-width="2"/>
<path d="M8.33325 13.2286C8.33325 13.2286 10.7333 11.1334 14.9333 11.1334C19.1333 11.1334 21.5333 13.2286 21.5333 13.2286V18.4667H8.33325V13.2286Z" stroke="white" stroke-width="2"/>
<path d="M1 39V12.6" stroke="white" stroke-width="2"/>
<path d="M5.3999 18.4667V0.866699" stroke="white" stroke-width="2"/>
<path d="M45 39V12.6" stroke="white" stroke-width="2"/>
<path d="M40.6001 18.4667V0.866699" stroke="white" stroke-width="2"/>
</svg>
