<svg width="32" height="26" viewBox="0 0 32 26" fill="none" xmlns="http://www.w3.org/2000/svg">
<rect x="1" y="12" width="30" height="10" stroke="#272843"/>
<path d="M4 5.57143C4 5.57143 8.36364 3 16 3C23.6364 3 28 5.57143 28 5.57143V12H4V5.57143Z" stroke="#272843"/>
<path d="M17 8.42857C17 8.42857 18.6364 7 21.5 7C24.3636 7 26 8.42857 26 8.42857V12H17V8.42857Z" stroke="#272843"/>
<path d="M6 8.42857C6 8.42857 7.63636 7 10.5 7C13.3636 7 15 8.42857 15 8.42857V12H6V8.42857Z" stroke="#272843"/>
<path d="M1 26V8" stroke="#272843"/>
<path d="M4 12V0" stroke="#272843"/>
<path d="M31 26V8" stroke="#272843"/>
<path d="M28 12V0" stroke="#272843"/>
</svg>
