<svg width="18" height="12" viewBox="0 0 18 12" fill="none" xmlns="http://www.w3.org/2000/svg">
<path d="M1.09562 6.62287C0.890522 6.36955 0.728253 6.15582 0.613577 6C0.728253 5.84418 0.890522 5.63045 1.09562 5.37713C1.5401 4.82814 2.18255 4.09719 2.97452 3.36778C4.57633 1.89253 6.70708 0.5 8.99976 0.5C11.2924 0.5 13.4232 1.89253 15.025 3.36778C15.817 4.09719 16.4594 4.82814 16.9039 5.37713C17.109 5.63044 17.2713 5.84418 17.3859 6C17.2713 6.15583 17.109 6.36956 16.9039 6.62287C16.4594 7.17186 15.817 7.90281 15.025 8.63222C13.4232 10.1075 11.2924 11.5 8.99976 11.5C6.70708 11.5 4.57633 10.1075 2.97452 8.63222C2.18255 7.90281 1.5401 7.17186 1.09562 6.62287Z" stroke="white"/>
<circle cx="8.99976" cy="6" r="2.5" stroke="white"/>
</svg>
